<?xml version="1.0" encoding="UTF-8"?>
<svg xmlns="http://www.w3.org/2000/svg" xmlns:xlink="http://www.w3.org/1999/xlink" width="30px" height="30px" viewBox="0 0 30 30" version="1.1">
<g id="surface1">
<path style="fill-rule:nonzero;fill:rgb(91.764706%,26.27451%,20.392157%);fill-opacity:1;stroke-width:1;stroke-linecap:butt;stroke-linejoin:miter;stroke:rgb(91.764706%,26.27451%,20.392157%);stroke-opacity:1;stroke-miterlimit:4;" d="M 101.513672 9.990234 L 123.486328 9.990234 L 139.511719 13.007812 L 161.513672 22.001953 L 180 35.507812 L 150.498047 65.009766 L 147.509766 61.992188 L 134.501953 54.990234 L 125.507812 52.001953 L 106.494141 51.005859 L 95.507812 52.998047 L 81.503906 59.003906 L 75.498047 62.988281 L 62.988281 75.498047 L 54.492188 91.992188 L 53.994141 90.498047 L 58.007812 81.503906 L 69.492188 67.001953 L 81.503906 58.007812 L 92.490234 52.998047 L 106.494141 50.009766 L 118.505859 50.009766 L 132.509766 52.998047 L 150.498047 62.988281 L 178.007812 35.507812 L 178.007812 34.013672 L 161.513672 22.998047 L 139.511719 14.003906 L 123.486328 10.986328 L 101.513672 10.986328 L 85.488281 14.003906 L 73.505859 17.988281 L 59.501953 24.990234 L 49.511719 31.992188 L 36.005859 44.501953 L 24.990234 59.501953 L 21.503906 67.001953 L 21.005859 65.507812 L 30 50.507812 L 44.501953 35.009766 L 59.501953 23.994141 L 73.505859 16.992188 L 85.488281 13.007812 Z M 101.513672 9.990234 " transform="matrix(0.133333,0,0,0.133333,0,0)"/>
<path style="fill-rule:nonzero;fill:rgb(91.764706%,26.27451%,20.784314%);fill-opacity:1;stroke-width:1;stroke-linecap:butt;stroke-linejoin:miter;stroke:rgb(91.764706%,26.27451%,20.784314%);stroke-opacity:1;stroke-miterlimit:4;" d="M 99.492188 9.990234 L 101.513672 10.986328 L 123.486328 10.986328 L 125.507812 9.990234 L 125.507812 10.986328 L 124.013672 11.513672 L 130.488281 12.011719 L 132.011719 11.513672 L 131.513672 13.007812 L 142.5 15 L 143.994141 14.501953 L 143.496094 15.996094 L 150.498047 17.988281 L 151.992188 17.490234 L 151.494141 19.013672 L 162.509766 23.994141 L 164.003906 23.496094 L 163.505859 24.990234 L 167.490234 27.011719 L 169.013672 26.513672 L 168.486328 28.007812 L 170.507812 29.003906 L 172.001953 28.505859 L 171.503906 30 L 174.492188 31.992188 L 175.986328 31.494141 L 174.990234 32.490234 L 176.513672 34.013672 L 178.007812 34.013672 L 178.007812 35.507812 L 149.501953 62.988281 L 147.011719 62.490234 L 147.509766 60.996094 L 145.488281 60 L 143.994141 60.498047 L 144.492188 59.003906 L 132.509766 52.998047 L 126.503906 52.001953 L 125.009766 52.5 L 125.507812 51.005859 L 119.501953 51.005859 L 118.505859 52.001953 L 118.505859 50.009766 L 105.996094 50.507812 L 106.494141 52.001953 L 105.498047 51.005859 L 99.492188 51.005859 L 99.492188 52.998047 L 95.507812 52.001953 L 95.507812 53.994141 L 92.490234 52.998047 L 92.490234 54.990234 L 90.498047 53.994141 L 87.011719 55.488281 L 87.509766 57.011719 L 85.488281 55.986328 L 82.998047 57.509766 L 83.496094 59.003906 L 81.503906 58.007812 L 81.503906 60 L 79.511719 60 L 77.988281 60.498047 L 78.486328 61.992188 L 76.494141 61.992188 L 75 62.490234 L 75.498047 64.013672 L 74.501953 62.988281 L 70.488281 67.001953 L 67.001953 69.492188 L 62.988281 74.501953 L 63.486328 75.996094 L 61.992188 75.498047 L 60.996094 77.490234 L 61.494141 79.013672 L 60 78.486328 L 59.003906 80.507812 L 59.501953 82.001953 L 58.007812 81.503906 L 59.003906 83.496094 L 57.011719 83.496094 L 58.007812 85.488281 L 55.986328 85.488281 L 57.011719 87.509766 L 54.990234 87.509766 L 53.994141 91.494141 L 54.492188 92.988281 L 20.009766 66.503906 L 22.001953 66.503906 L 21.005859 64.511719 L 22.998047 64.511719 L 22.001953 62.490234 L 23.994141 62.490234 L 25.986328 58.505859 L 25.488281 57.011719 L 27.011719 57.509766 L 28.007812 55.488281 L 27.509766 53.994141 L 29.003906 54.492188 L 34.013672 47.490234 L 33.486328 45.996094 L 34.511719 46.992188 L 36.005859 45.498047 L 43.505859 37.001953 L 45.996094 35.507812 L 45 34.511719 L 46.494141 32.988281 L 47.490234 34.013672 L 49.511719 31.992188 L 54.990234 28.505859 L 54.492188 27.011719 L 56.513672 27.011719 L 58.007812 26.513672 L 57.509766 24.990234 L 59.501953 24.990234 L 65.009766 22.5 L 64.511719 21.005859 L 66.503906 22.001953 L 66.503906 20.009766 L 68.496094 21.005859 L 68.496094 19.013672 L 70.488281 20.009766 L 75.996094 17.490234 L 75.498047 15.996094 L 78.486328 16.992188 L 82.001953 15.498047 L 81.503906 14.003906 L 84.492188 15 L 84.492188 13.007812 L 88.505859 14.003906 L 88.505859 12.011719 L 93.486328 13.007812 L 93.486328 10.986328 L 94.511719 12.011719 L 100.488281 12.011719 L 100.488281 10.986328 Z M 99.492188 9.990234 " transform="matrix(0.133333,0,0,0.133333,0,0)"/>
<path style="fill-rule:nonzero;fill:rgb(87.058824%,87.058824%,85.882353%);fill-opacity:1;stroke-width:1;stroke-linecap:butt;stroke-linejoin:miter;stroke:rgb(87.058824%,87.058824%,85.882353%);stroke-opacity:1;stroke-miterlimit:4;" d="M 119.501953 8.994141 L 121.992188 9.492188 L 119.501953 9.990234 Z M 119.501953 8.994141 " transform="matrix(0.133333,0,0,0.133333,0,0)"/>
<path style="fill-rule:nonzero;fill:rgb(87.058824%,87.058824%,85.882353%);fill-opacity:1;stroke-width:1;stroke-linecap:butt;stroke-linejoin:miter;stroke:rgb(87.058824%,87.058824%,85.882353%);stroke-opacity:1;stroke-miterlimit:4;" d="M 43.505859 35.009766 L 41.513672 37.998047 Z M 43.505859 35.009766 " transform="matrix(0.133333,0,0,0.133333,0,0)"/>
<path style="fill-rule:nonzero;fill:rgb(87.058824%,87.058824%,85.882353%);fill-opacity:1;stroke-width:1;stroke-linecap:butt;stroke-linejoin:miter;stroke:rgb(87.058824%,87.058824%,85.882353%);stroke-opacity:1;stroke-miterlimit:4;" d="M 36.503906 42.011719 L 35.507812 44.003906 Z M 36.503906 42.011719 " transform="matrix(0.133333,0,0,0.133333,0,0)"/>
<path style="fill-rule:nonzero;fill:rgb(87.058824%,87.058824%,85.882353%);fill-opacity:1;stroke-width:1;stroke-linecap:butt;stroke-linejoin:miter;stroke:rgb(87.058824%,87.058824%,85.882353%);stroke-opacity:1;stroke-miterlimit:4;" d="M 71.513672 67.001953 L 67.5 72.011719 Z M 71.513672 67.001953 " transform="matrix(0.133333,0,0,0.133333,0,0)"/>
<path style="fill-rule:nonzero;fill:rgb(87.058824%,87.058824%,85.882353%);fill-opacity:1;stroke-width:1;stroke-linecap:butt;stroke-linejoin:miter;stroke:rgb(87.058824%,87.058824%,85.882353%);stroke-opacity:1;stroke-miterlimit:4;" d="M 112.001953 92.988281 L 209.003906 93.486328 L 112.998047 94.013672 L 112.5 134.003906 Z M 112.001953 92.988281 " transform="matrix(0.133333,0,0,0.133333,0,0)"/>
<path style="fill-rule:nonzero;fill:rgb(87.058824%,87.058824%,85.882353%);fill-opacity:1;stroke-width:1;stroke-linecap:butt;stroke-linejoin:miter;stroke:rgb(87.058824%,87.058824%,85.882353%);stroke-opacity:1;stroke-miterlimit:4;" d="M 210.498047 102.011719 L 210.996094 104.501953 L 210 104.501953 Z M 210.498047 102.011719 " transform="matrix(0.133333,0,0,0.133333,0,0)"/>
<path style="fill-rule:nonzero;fill:rgb(87.058824%,87.058824%,85.882353%);fill-opacity:1;stroke-width:1;stroke-linecap:butt;stroke-linejoin:miter;stroke:rgb(87.058824%,87.058824%,85.882353%);stroke-opacity:1;stroke-miterlimit:4;" d="M 9.492188 103.007812 L 9.990234 107.490234 L 8.994141 107.490234 Z M 9.492188 103.007812 " transform="matrix(0.133333,0,0,0.133333,0,0)"/>
<path style="fill-rule:nonzero;fill:rgb(87.058824%,87.058824%,85.882353%);fill-opacity:1;stroke-width:1;stroke-linecap:butt;stroke-linejoin:miter;stroke:rgb(87.058824%,87.058824%,85.882353%);stroke-opacity:1;stroke-miterlimit:4;" d="M 9.492188 117.011719 L 9.990234 120.498047 L 8.994141 120.498047 Z M 9.492188 117.011719 " transform="matrix(0.133333,0,0,0.133333,0,0)"/>
<path style="fill-rule:nonzero;fill:rgb(87.058824%,87.058824%,85.882353%);fill-opacity:1;stroke-width:1;stroke-linecap:butt;stroke-linejoin:miter;stroke:rgb(87.058824%,87.058824%,85.882353%);stroke-opacity:1;stroke-miterlimit:4;" d="M 210.498047 122.988281 L 210.996094 126.503906 L 210 126.503906 Z M 210.498047 122.988281 " transform="matrix(0.133333,0,0,0.133333,0,0)"/>
<path style="fill-rule:nonzero;fill:rgb(87.058824%,87.058824%,85.882353%);fill-opacity:1;stroke-width:1;stroke-linecap:butt;stroke-linejoin:miter;stroke:rgb(87.058824%,87.058824%,85.882353%);stroke-opacity:1;stroke-miterlimit:4;" d="M 209.501953 130.986328 L 210 133.505859 L 209.003906 133.505859 Z M 209.501953 130.986328 " transform="matrix(0.133333,0,0,0.133333,0,0)"/>
<path style="fill-rule:nonzero;fill:rgb(87.058824%,87.058824%,85.882353%);fill-opacity:1;stroke-width:1;stroke-linecap:butt;stroke-linejoin:miter;stroke:rgb(87.058824%,87.058824%,85.882353%);stroke-opacity:1;stroke-miterlimit:4;" d="M 60.498047 143.994141 L 61.494141 145.986328 Z M 60.498047 143.994141 " transform="matrix(0.133333,0,0,0.133333,0,0)"/>
<path style="fill-rule:nonzero;fill:rgb(87.058824%,87.058824%,85.882353%);fill-opacity:1;stroke-width:1;stroke-linecap:butt;stroke-linejoin:miter;stroke:rgb(87.058824%,87.058824%,85.882353%);stroke-opacity:1;stroke-miterlimit:4;" d="M 62.490234 147.011719 L 63.486328 149.003906 Z M 62.490234 147.011719 " transform="matrix(0.133333,0,0,0.133333,0,0)"/>
<path style="fill-rule:nonzero;fill:rgb(87.058824%,87.058824%,85.882353%);fill-opacity:1;stroke-width:1;stroke-linecap:butt;stroke-linejoin:miter;stroke:rgb(87.058824%,87.058824%,85.882353%);stroke-opacity:1;stroke-miterlimit:4;" d="M 65.507812 150.996094 L 72.509766 158.994141 Z M 65.507812 150.996094 " transform="matrix(0.133333,0,0,0.133333,0,0)"/>
<path style="fill-rule:nonzero;fill:rgb(87.058824%,87.058824%,85.882353%);fill-opacity:1;stroke-width:1;stroke-linecap:butt;stroke-linejoin:miter;stroke:rgb(87.058824%,87.058824%,85.882353%);stroke-opacity:1;stroke-miterlimit:4;" d="M 159.492188 151.992188 L 158.496094 154.013672 Z M 159.492188 151.992188 " transform="matrix(0.133333,0,0,0.133333,0,0)"/>
<path style="fill-rule:nonzero;fill:rgb(87.058824%,87.058824%,85.882353%);fill-opacity:1;stroke-width:1;stroke-linecap:butt;stroke-linejoin:miter;stroke:rgb(87.058824%,87.058824%,85.882353%);stroke-opacity:1;stroke-miterlimit:4;" d="M 76.494141 160.986328 L 77.490234 163.007812 Z M 76.494141 160.986328 " transform="matrix(0.133333,0,0,0.133333,0,0)"/>
<path style="fill-rule:nonzero;fill:rgb(87.058824%,87.058824%,85.882353%);fill-opacity:1;stroke-width:1;stroke-linecap:butt;stroke-linejoin:miter;stroke:rgb(87.058824%,87.058824%,85.882353%);stroke-opacity:1;stroke-miterlimit:4;" d="M 150.498047 160.986328 L 149.501953 163.007812 Z M 150.498047 160.986328 " transform="matrix(0.133333,0,0,0.133333,0,0)"/>
<path style="fill-rule:nonzero;fill:rgb(87.058824%,87.058824%,85.882353%);fill-opacity:1;stroke-width:1;stroke-linecap:butt;stroke-linejoin:miter;stroke:rgb(87.058824%,87.058824%,85.882353%);stroke-opacity:1;stroke-miterlimit:4;" d="M 25.488281 167.988281 L 26.513672 170.009766 Z M 25.488281 167.988281 " transform="matrix(0.133333,0,0,0.133333,0,0)"/>
<path style="fill-rule:nonzero;fill:rgb(87.058824%,87.058824%,85.882353%);fill-opacity:1;stroke-width:1;stroke-linecap:butt;stroke-linejoin:miter;stroke:rgb(87.058824%,87.058824%,85.882353%);stroke-opacity:1;stroke-miterlimit:4;" d="M 27.509766 171.005859 L 28.505859 172.998047 Z M 27.509766 171.005859 " transform="matrix(0.133333,0,0,0.133333,0,0)"/>
<path style="fill-rule:nonzero;fill:rgb(87.058824%,87.058824%,85.882353%);fill-opacity:1;stroke-width:1;stroke-linecap:butt;stroke-linejoin:miter;stroke:rgb(87.058824%,87.058824%,85.882353%);stroke-opacity:1;stroke-miterlimit:4;" d="M 101.513672 172.001953 L 104.003906 172.5 L 101.513672 172.998047 Z M 101.513672 172.001953 " transform="matrix(0.133333,0,0,0.133333,0,0)"/>
<path style="fill-rule:nonzero;fill:rgb(87.058824%,87.058824%,85.882353%);fill-opacity:1;stroke-width:1;stroke-linecap:butt;stroke-linejoin:miter;stroke:rgb(87.058824%,87.058824%,85.882353%);stroke-opacity:1;stroke-miterlimit:4;" d="M 122.490234 172.001953 L 125.009766 172.5 L 122.490234 172.998047 Z M 122.490234 172.001953 " transform="matrix(0.133333,0,0,0.133333,0,0)"/>
<path style="fill-rule:nonzero;fill:rgb(87.058824%,87.058824%,85.882353%);fill-opacity:1;stroke-width:1;stroke-linecap:butt;stroke-linejoin:miter;stroke:rgb(87.058824%,87.058824%,85.882353%);stroke-opacity:1;stroke-miterlimit:4;" d="M 111.503906 172.998047 L 113.994141 173.496094 L 111.503906 173.994141 Z M 111.503906 172.998047 " transform="matrix(0.133333,0,0,0.133333,0,0)"/>
<path style="fill-rule:nonzero;fill:rgb(87.058824%,87.058824%,85.882353%);fill-opacity:1;stroke-width:1;stroke-linecap:butt;stroke-linejoin:miter;stroke:rgb(87.058824%,87.058824%,85.882353%);stroke-opacity:1;stroke-miterlimit:4;" d="M 30.498047 174.990234 L 31.494141 177.011719 Z M 30.498047 174.990234 " transform="matrix(0.133333,0,0,0.133333,0,0)"/>
<path style="fill-rule:nonzero;fill:rgb(87.058824%,87.058824%,85.882353%);fill-opacity:1;stroke-width:1;stroke-linecap:butt;stroke-linejoin:miter;stroke:rgb(87.058824%,87.058824%,85.882353%);stroke-opacity:1;stroke-miterlimit:4;" d="M 190.488281 178.007812 L 189.492188 180 Z M 190.488281 178.007812 " transform="matrix(0.133333,0,0,0.133333,0,0)"/>
<path style="fill-rule:nonzero;fill:rgb(87.058824%,87.058824%,85.882353%);fill-opacity:1;stroke-width:1;stroke-linecap:butt;stroke-linejoin:miter;stroke:rgb(87.058824%,87.058824%,85.882353%);stroke-opacity:1;stroke-miterlimit:4;" d="M 34.511719 180 L 44.501953 190.986328 Z M 34.511719 180 " transform="matrix(0.133333,0,0,0.133333,0,0)"/>
<path style="fill-rule:nonzero;fill:rgb(87.058824%,87.058824%,85.882353%);fill-opacity:1;stroke-width:1;stroke-linecap:butt;stroke-linejoin:miter;stroke:rgb(87.058824%,87.058824%,85.882353%);stroke-opacity:1;stroke-miterlimit:4;" d="M 185.507812 184.013672 L 179.501953 190.986328 Z M 185.507812 184.013672 " transform="matrix(0.133333,0,0,0.133333,0,0)"/>
<path style="fill-rule:nonzero;fill:rgb(87.058824%,87.058824%,85.882353%);fill-opacity:1;stroke-width:1;stroke-linecap:butt;stroke-linejoin:miter;stroke:rgb(87.058824%,87.058824%,85.882353%);stroke-opacity:1;stroke-miterlimit:4;" d="M 48.486328 193.007812 L 49.511719 195 Z M 48.486328 193.007812 " transform="matrix(0.133333,0,0,0.133333,0,0)"/>
<path style="fill-rule:nonzero;fill:rgb(87.058824%,87.058824%,85.882353%);fill-opacity:1;stroke-width:1;stroke-linecap:butt;stroke-linejoin:miter;stroke:rgb(87.058824%,87.058824%,85.882353%);stroke-opacity:1;stroke-miterlimit:4;" d="M 175.488281 193.007812 L 174.492188 195 Z M 175.488281 193.007812 " transform="matrix(0.133333,0,0,0.133333,0,0)"/>
<path style="fill-rule:nonzero;fill:rgb(87.058824%,87.058824%,85.882353%);fill-opacity:1;stroke-width:1;stroke-linecap:butt;stroke-linejoin:miter;stroke:rgb(87.058824%,87.058824%,85.882353%);stroke-opacity:1;stroke-miterlimit:4;" d="M 52.5 195.996094 L 53.496094 197.988281 Z M 52.5 195.996094 " transform="matrix(0.133333,0,0,0.133333,0,0)"/>
<path style="fill-rule:nonzero;fill:rgb(87.058824%,87.058824%,85.882353%);fill-opacity:1;stroke-width:1;stroke-linecap:butt;stroke-linejoin:miter;stroke:rgb(87.058824%,87.058824%,85.882353%);stroke-opacity:1;stroke-miterlimit:4;" d="M 55.488281 197.988281 L 56.513672 200.009766 Z M 55.488281 197.988281 " transform="matrix(0.133333,0,0,0.133333,0,0)"/>
<path style="fill-rule:nonzero;fill:rgb(87.058824%,87.058824%,85.882353%);fill-opacity:1;stroke-width:1;stroke-linecap:butt;stroke-linejoin:miter;stroke:rgb(87.058824%,87.058824%,85.882353%);stroke-opacity:1;stroke-miterlimit:4;" d="M 95.507812 214.013672 L 97.998047 214.511719 L 95.507812 215.009766 Z M 95.507812 214.013672 " transform="matrix(0.133333,0,0,0.133333,0,0)"/>
<path style="fill-rule:nonzero;fill:rgb(87.058824%,87.058824%,85.882353%);fill-opacity:1;stroke-width:1;stroke-linecap:butt;stroke-linejoin:miter;stroke:rgb(87.058824%,87.058824%,85.882353%);stroke-opacity:1;stroke-miterlimit:4;" d="M 127.5 214.013672 L 129.990234 214.511719 L 127.5 215.009766 Z M 127.5 214.013672 " transform="matrix(0.133333,0,0,0.133333,0,0)"/>
<path style="fill-rule:nonzero;fill:rgb(87.058824%,87.058824%,85.882353%);fill-opacity:1;stroke-width:1;stroke-linecap:butt;stroke-linejoin:miter;stroke:rgb(87.058824%,87.058824%,85.882353%);stroke-opacity:1;stroke-miterlimit:4;" d="M 103.505859 215.009766 L 121.992188 215.507812 L 103.505859 216.005859 Z M 103.505859 215.009766 " transform="matrix(0.133333,0,0,0.133333,0,0)"/>
<path style="fill-rule:nonzero;fill:rgb(94.509804%,70.588235%,38.039216%);fill-opacity:1;stroke-width:1;stroke-linecap:butt;stroke-linejoin:miter;stroke:rgb(94.509804%,70.588235%,38.039216%);stroke-opacity:1;stroke-miterlimit:4;" d="M 105.498047 8.994141 L 119.003906 9.492188 L 105.498047 9.990234 Z M 105.498047 8.994141 " transform="matrix(0.133333,0,0,0.133333,0,0)"/>
<path style="fill-rule:nonzero;fill:rgb(94.509804%,70.588235%,38.039216%);fill-opacity:1;stroke-width:1;stroke-linecap:butt;stroke-linejoin:miter;stroke:rgb(94.509804%,70.588235%,38.039216%);stroke-opacity:1;stroke-miterlimit:4;" d="M 126.503906 9.990234 L 128.994141 10.488281 L 126.503906 10.986328 Z M 126.503906 9.990234 " transform="matrix(0.133333,0,0,0.133333,0,0)"/>
<path style="fill-rule:nonzero;fill:rgb(94.509804%,70.588235%,38.039216%);fill-opacity:1;stroke-width:1;stroke-linecap:butt;stroke-linejoin:miter;stroke:rgb(94.509804%,70.588235%,38.039216%);stroke-opacity:1;stroke-miterlimit:4;" d="M 52.5 28.007812 L 51.503906 30 Z M 52.5 28.007812 " transform="matrix(0.133333,0,0,0.133333,0,0)"/>
<path style="fill-rule:nonzero;fill:rgb(94.509804%,70.588235%,38.039216%);fill-opacity:1;stroke-width:1;stroke-linecap:butt;stroke-linejoin:miter;stroke:rgb(94.509804%,70.588235%,38.039216%);stroke-opacity:1;stroke-miterlimit:4;" d="M 48.486328 30.996094 L 47.490234 32.988281 Z M 48.486328 30.996094 " transform="matrix(0.133333,0,0,0.133333,0,0)"/>
<path style="fill-rule:nonzero;fill:rgb(94.509804%,70.588235%,38.039216%);fill-opacity:1;stroke-width:1;stroke-linecap:butt;stroke-linejoin:miter;stroke:rgb(94.509804%,70.588235%,38.039216%);stroke-opacity:1;stroke-miterlimit:4;" d="M 178.505859 32.988281 L 179.501953 35.009766 Z M 178.505859 32.988281 " transform="matrix(0.133333,0,0,0.133333,0,0)"/>
<path style="fill-rule:nonzero;fill:rgb(94.509804%,70.588235%,38.039216%);fill-opacity:1;stroke-width:1;stroke-linecap:butt;stroke-linejoin:miter;stroke:rgb(94.509804%,70.588235%,38.039216%);stroke-opacity:1;stroke-miterlimit:4;" d="M 40.488281 37.998047 L 37.5 42.011719 Z M 40.488281 37.998047 " transform="matrix(0.133333,0,0,0.133333,0,0)"/>
<path style="fill-rule:nonzero;fill:rgb(94.509804%,70.588235%,38.039216%);fill-opacity:1;stroke-width:1;stroke-linecap:butt;stroke-linejoin:miter;stroke:rgb(94.509804%,70.588235%,38.039216%);stroke-opacity:1;stroke-miterlimit:4;" d="M 32.490234 46.992188 L 31.494141 49.013672 Z M 32.490234 46.992188 " transform="matrix(0.133333,0,0,0.133333,0,0)"/>
<path style="fill-rule:nonzero;fill:rgb(94.509804%,70.588235%,38.039216%);fill-opacity:1;stroke-width:1;stroke-linecap:butt;stroke-linejoin:miter;stroke:rgb(94.509804%,70.588235%,38.039216%);stroke-opacity:1;stroke-miterlimit:4;" d="M 29.501953 51.005859 L 28.505859 52.998047 Z M 29.501953 51.005859 " transform="matrix(0.133333,0,0,0.133333,0,0)"/>
<path style="fill-rule:nonzero;fill:rgb(94.509804%,70.588235%,38.039216%);fill-opacity:1;stroke-width:1;stroke-linecap:butt;stroke-linejoin:miter;stroke:rgb(94.509804%,70.588235%,38.039216%);stroke-opacity:1;stroke-miterlimit:4;" d="M 107.490234 51.005859 L 118.007812 51.503906 L 107.490234 52.001953 Z M 107.490234 51.005859 " transform="matrix(0.133333,0,0,0.133333,0,0)"/>
<path style="fill-rule:nonzero;fill:rgb(94.509804%,70.588235%,38.039216%);fill-opacity:1;stroke-width:1;stroke-linecap:butt;stroke-linejoin:miter;stroke:rgb(94.509804%,70.588235%,38.039216%);stroke-opacity:1;stroke-miterlimit:4;" d="M 74.501953 64.013672 L 72.509766 67.001953 Z M 74.501953 64.013672 " transform="matrix(0.133333,0,0,0.133333,0,0)"/>
<path style="fill-rule:nonzero;fill:rgb(94.509804%,70.588235%,38.039216%);fill-opacity:1;stroke-width:1;stroke-linecap:butt;stroke-linejoin:miter;stroke:rgb(94.509804%,70.588235%,38.039216%);stroke-opacity:1;stroke-miterlimit:4;" d="M 66.503906 72.011719 L 64.511719 75 Z M 66.503906 72.011719 " transform="matrix(0.133333,0,0,0.133333,0,0)"/>
<path style="fill-rule:nonzero;fill:rgb(94.509804%,70.588235%,38.039216%);fill-opacity:1;stroke-width:1;stroke-linecap:butt;stroke-linejoin:miter;stroke:rgb(94.509804%,70.588235%,38.039216%);stroke-opacity:1;stroke-miterlimit:4;" d="M 53.496094 91.992188 L 54.492188 94.013672 Z M 53.496094 91.992188 " transform="matrix(0.133333,0,0,0.133333,0,0)"/>
<path style="fill-rule:nonzero;fill:rgb(94.509804%,70.588235%,38.039216%);fill-opacity:1;stroke-width:1;stroke-linecap:butt;stroke-linejoin:miter;stroke:rgb(94.509804%,70.588235%,38.039216%);stroke-opacity:1;stroke-miterlimit:4;" d="M 51.503906 106.992188 L 52.001953 117.509766 L 51.005859 117.509766 Z M 51.503906 106.992188 " transform="matrix(0.133333,0,0,0.133333,0,0)"/>
<path style="fill-rule:nonzero;fill:rgb(94.509804%,70.588235%,38.039216%);fill-opacity:1;stroke-width:1;stroke-linecap:butt;stroke-linejoin:miter;stroke:rgb(94.509804%,70.588235%,38.039216%);stroke-opacity:1;stroke-miterlimit:4;" d="M 9.492188 107.988281 L 9.990234 116.513672 L 8.994141 116.513672 Z M 9.492188 107.988281 " transform="matrix(0.133333,0,0,0.133333,0,0)"/>
<path style="fill-rule:nonzero;fill:rgb(94.509804%,70.588235%,38.039216%);fill-opacity:1;stroke-width:1;stroke-linecap:butt;stroke-linejoin:miter;stroke:rgb(94.509804%,70.588235%,38.039216%);stroke-opacity:1;stroke-miterlimit:4;" d="M 10.488281 125.009766 L 10.986328 127.5 L 9.990234 127.5 Z M 10.488281 125.009766 " transform="matrix(0.133333,0,0,0.133333,0,0)"/>
<path style="fill-rule:nonzero;fill:rgb(100%,100%,100%);fill-opacity:1;stroke-width:1;stroke-linecap:butt;stroke-linejoin:miter;stroke:rgb(100%,100%,100%);stroke-opacity:1;stroke-miterlimit:4;" d="M 0 0 L 225 0 L 225 225 L 0 225 Z M 104.003906 8.994141 L 82.998047 13.007812 L 69.990234 17.988281 L 57.011719 24.990234 L 44.003906 35.009766 L 30 50.009766 L 22.001953 61.992188 L 14.003906 80.009766 L 8.994141 104.003906 L 8.994141 120.996094 L 14.003906 145.986328 L 22.001953 164.003906 L 34.013672 180.996094 L 45 190.986328 L 61.992188 202.998047 L 82.998047 211.992188 L 104.003906 216.005859 L 121.992188 216.005859 L 142.998047 211.992188 L 159.990234 204.990234 L 180 190.986328 L 190.986328 179.003906 L 203.994141 156.005859 L 209.003906 139.013672 L 210 127.998047 L 210.996094 127.001953 L 210.996094 103.007812 L 209.003906 96.005859 L 209.003906 92.988281 L 112.001953 92.988281 L 112.001953 134.003906 L 166.992188 134.003906 L 165.996094 141.005859 L 157.998047 155.009766 L 148.007812 164.003906 L 137.988281 169.013672 L 121.992188 172.998047 L 105 172.998047 L 96.005859 171.005859 L 75.996094 160.986328 L 60 143.994141 L 53.994141 130.986328 L 52.001953 121.992188 L 52.001953 104.003906 L 53.994141 95.009766 L 64.013672 75.996094 L 80.009766 60.996094 L 95.009766 53.994141 L 105 52.001953 L 127.001953 52.998047 L 143.994141 60 L 150.996094 65.009766 L 180 35.009766 L 165 22.998047 L 150.996094 15.996094 L 139.013672 12.011719 L 121.992188 8.994141 Z M 104.003906 8.994141 " transform="matrix(0.133333,0,0,0.133333,0,0)"/>
<path style="fill-rule:nonzero;fill:rgb(98.431373%,73.333333%,1.568627%);fill-opacity:1;stroke-width:1;stroke-linecap:butt;stroke-linejoin:miter;stroke:rgb(98.431373%,73.333333%,1.568627%);stroke-opacity:1;stroke-miterlimit:4;" d="M 20.507812 67.001953 L 53.994141 93.486328 L 51.005859 107.490234 L 51.005859 117.509766 L 53.994141 131.513672 L 20.507812 157.998047 L 15.996094 149.501953 L 10.986328 131.513672 L 10.986328 125.507812 L 9.990234 124.511719 L 9.990234 99.492188 L 14.003906 81.503906 Z M 20.507812 67.001953 " transform="matrix(0.133333,0,0,0.133333,0,0)"/>
<path style="fill-rule:nonzero;fill:rgb(37.254902%,60%,90.980392%);fill-opacity:1;stroke-width:1;stroke-linecap:butt;stroke-linejoin:miter;stroke:rgb(37.254902%,60%,90.980392%);stroke-opacity:1;stroke-miterlimit:4;" d="M 210.498047 105 L 210.996094 108.486328 L 210 108.486328 Z M 210.498047 105 " transform="matrix(0.133333,0,0,0.133333,0,0)"/>
<path style="fill-rule:nonzero;fill:rgb(37.254902%,60%,90.980392%);fill-opacity:1;stroke-width:1;stroke-linecap:butt;stroke-linejoin:miter;stroke:rgb(37.254902%,60%,90.980392%);stroke-opacity:1;stroke-miterlimit:4;" d="M 210.498047 117.011719 L 210.996094 122.490234 L 210 122.490234 Z M 210.498047 117.011719 " transform="matrix(0.133333,0,0,0.133333,0,0)"/>
<path style="fill-rule:nonzero;fill:rgb(37.254902%,60%,90.980392%);fill-opacity:1;stroke-width:1;stroke-linecap:butt;stroke-linejoin:miter;stroke:rgb(37.254902%,60%,90.980392%);stroke-opacity:1;stroke-miterlimit:4;" d="M 113.496094 133.007812 L 167.988281 133.505859 L 113.496094 134.003906 Z M 113.496094 133.007812 " transform="matrix(0.133333,0,0,0.133333,0,0)"/>
<path style="fill-rule:nonzero;fill:rgb(37.254902%,60%,90.980392%);fill-opacity:1;stroke-width:1;stroke-linecap:butt;stroke-linejoin:miter;stroke:rgb(37.254902%,60%,90.980392%);stroke-opacity:1;stroke-miterlimit:4;" d="M 157.5 155.009766 L 152.490234 160.986328 Z M 157.5 155.009766 " transform="matrix(0.133333,0,0,0.133333,0,0)"/>
<path style="fill-rule:nonzero;fill:rgb(37.254902%,60%,90.980392%);fill-opacity:1;stroke-width:1;stroke-linecap:butt;stroke-linejoin:miter;stroke:rgb(37.254902%,60%,90.980392%);stroke-opacity:1;stroke-miterlimit:4;" d="M 114.492188 172.998047 L 117.011719 173.496094 L 114.492188 173.994141 Z M 114.492188 172.998047 " transform="matrix(0.133333,0,0,0.133333,0,0)"/>
<path style="fill-rule:nonzero;fill:rgb(37.254902%,60%,90.980392%);fill-opacity:1;stroke-width:1;stroke-linecap:butt;stroke-linejoin:miter;stroke:rgb(37.254902%,60%,90.980392%);stroke-opacity:1;stroke-miterlimit:4;" d="M 191.513672 175.986328 L 190.488281 178.007812 Z M 191.513672 175.986328 " transform="matrix(0.133333,0,0,0.133333,0,0)"/>
<path style="fill-rule:nonzero;fill:rgb(37.254902%,60%,90.980392%);fill-opacity:1;stroke-width:1;stroke-linecap:butt;stroke-linejoin:miter;stroke:rgb(37.254902%,60%,90.980392%);stroke-opacity:1;stroke-miterlimit:4;" d="M 188.496094 180 L 186.503906 182.988281 Z M 188.496094 180 " transform="matrix(0.133333,0,0,0.133333,0,0)"/>
<path style="fill-rule:nonzero;fill:rgb(20.392157%,65.882353%,32.54902%);fill-opacity:1;stroke-width:1;stroke-linecap:butt;stroke-linejoin:miter;stroke:rgb(20.392157%,65.882353%,32.54902%);stroke-opacity:1;stroke-miterlimit:4;" d="M 53.496094 132.011719 L 54.990234 132.011719 L 54.990234 134.501953 L 61.992188 147.509766 L 73.505859 159.990234 L 80.507812 165 L 93.486328 171.005859 L 101.513672 172.998047 L 116.513672 173.994141 L 133.505859 171.005859 L 147.509766 165 L 179.003906 189.492188 L 176.513672 193.007812 L 158.496094 204.990234 L 140.507812 211.992188 L 125.507812 215.009766 L 99.492188 215.009766 L 84.492188 211.992188 L 60.498047 202.001953 L 47.490234 193.007812 L 31.992188 177.509766 L 20.009766 158.496094 Z M 53.496094 132.011719 " transform="matrix(0.133333,0,0,0.133333,0,0)"/>
<path style="fill-rule:nonzero;fill:rgb(25.882353%,52.156863%,95.686275%);fill-opacity:1;stroke-width:1;stroke-linecap:butt;stroke-linejoin:miter;stroke:rgb(25.882353%,52.156863%,95.686275%);stroke-opacity:1;stroke-miterlimit:4;" d="M 112.998047 94.013672 L 207.509766 94.013672 L 209.003906 95.507812 L 210.996094 116.513672 L 210 117.509766 L 209.003906 135.498047 L 202.001953 158.496094 L 193.007812 174.492188 L 179.501953 189.990234 L 162.011719 177.011719 L 162.011719 174.990234 L 160.488281 174.990234 L 147.011719 164.501953 L 157.998047 155.507812 L 165 144.492188 L 167.988281 133.007812 L 112.998047 133.007812 Z M 112.998047 94.013672 " transform="matrix(0.133333,0,0,0.133333,0,0)"/>
</g>
</svg>
