<svg id="SvgjsSvg1001" width="288" height="288" xmlns="http://www.w3.org/2000/svg" version="1.1" xmlns:xlink="http://www.w3.org/1999/xlink" xmlns:svgjs="http://svgjs.com/svgjs"><defs id="SvgjsDefs1002"></defs><g id="SvgjsG1008" transform="matrix(1,0,0,1,0,0)"><svg xmlns="http://www.w3.org/2000/svg" width="288" height="288" version="1.0" viewBox="0 0 1112 740"><g transform="matrix(.1 0 0 -.1 0 740)" fill="#7966FF" class="color000 svgShape"><path d="M5881 5541 c-11 -7 3 -61 77 -293 83 -260 89 -284 72 -292 -10 -4-23 -20 -29 -34 -15 -31 2 -78 30 -87 27 -9 24 -34 -10 -86 -35 -57 -82 -94
-246 -201 -223 -145 -323 -236 -422 -383 -163 -242 -244 -568 -247 -990 -1
-175 1 -195 22 -250 39 -103 101 -196 191 -286 260 -260 668 -409 1114 -409
569 1 1082 255 1267 628 51 104 63 176 56 347 -25 576 -160 933 -446 1181 -36
31 -136 102 -222 159 -185 122 -231 162 -264 227 l-24 47 23 12 c30 16 37 28
37 66 0 22 -8 38 -25 51 l-24 19 90 283 c72 225 88 285 77 292 -7 5 -69 7
-138 5 -97 -2 -157 -10 -267 -36 l-142 -33 -165 36 c-131 28 -187 36 -268 36
-57 0 -109 -4 -117 -9z m647 -1493 c7 -7 12 -28 12 -48 0 -36 1 -37 53 -49 75
-17 171 -71 175 -98 4 -27 -85 -163 -106 -163 -8 0 -40 12 -71 27 -76 37 -170
44 -200 14 -24 -24 -27 -53 -8 -69 6 -6 55 -22 107 -37 124 -36 177 -63 227
-118 149 -162 61 -423 -166 -492 l-61 -18 0 -43 c0 -52 -16 -64 -90 -64 -73 0
-90 12 -90 63 l0 43 -67 17 c-81 21 -153 55 -167 79 -8 13 -2 35 29 97 21 44
44 82 51 85 7 3 44 -9 81 -26 53 -24 86 -32 148 -36 71 -4 83 -2 108 18 33 26
37 78 8 104 -11 10 -66 31 -123 48 -57 16 -122 41 -145 54 -79 45 -123 130
-123 234 0 137 81 241 218 281 39 11 42 14 42 49 0 20 5 41 12 48 16 16 130
16 146 0z" fill="#7966FF" class="color000 svgShape"></path><path d="M4429 4715c-278-44-476-141-530-260-17-36-19-70-19-307l0-267 58-6c194-22 349-61 491-125l89-40 155 0c137 0 278 11 329 26 15 4 31 45 53 135l6 26-63-13c-427-89-978 33-978 216 0 22 3 40 7 40 3 0 36-14 72-31 87-41 258-84 400-99 178-20 445-3 596 38 25 7 39 25 81 103 29 52 51 95 50 96-1 1-31-9-66-24-132-53-234-68-475-68-177 0-236 4-303 18-207 46-334 111-356 184-14 46 80 118 212 164 334 115 898 66 1065-93l41-39 50 51c59 58 58 63-20 123-92 70-282 133-469 156-120 15-369 12-476-4zM3616 3730c-248-24-446-88-559-181-20-17-49-52-65-77l-27-47 0-345c0-337 1-346 22-386 44-82 155-156 303-203 476-151 1147-38 1261 212 17 39 19 70 19 377 0 381-1 382-82 456-60 55-116 86-223 124-169 59-449 89-649 70zm379-151c183-25 341-84 400-151 19-21 35-47 35-57 0-35-51-81-134-120-229-110-599-133-904-55-175 44-282 112-282 180 0 78 163 158 400 199 93 16 383 19 485 4zm435-469c0-41-5-55-31-85-43-49-156-101-286-131-148-35-416-44-582-20-186 28-356 94-404 158-21 28-36 118-20 118 6 0 44-16 86-35 277-128 774-139 1091-24 44 16 95 38 111 49 17 11 31 20 33 20 1 0 2-22 2-50zm-1277-271c60-31 169-67 272-90 131-30 439-37 593-15 135 20 262 56 342 96 33 17 62 30 65 30 10 0 5-79-6-104-26-55-149-118-306-155-294-69-689-38-894 71-83 43-111 77-117 138-2 27-2 50 2 50 4 0 26-10 49-21zM4935 3579c-22-4-93-11-157-15-96-6-116-9-107-20 6-8 19-39 29-71l18-58 44 2c138 6 198 15 207 31 12 24 24 142 14 141-4-1-26-5-48-10z" fill="#7966FF" class="color000 svgShape"></path></g></svg></g></svg>